<?xml version="1.0"?>
<svg xmlns="http://www.w3.org/2000/svg" xmlns:xlink="http://www.w3.org/1999/xlink" xmlns:svgjs="http://svgjs.com/svgjs" version="1.1" width="512" height="512" x="0" y="0" viewBox="0 0 511.999 511.999" style="enable-background:new 0 0 512 512" xml:space="preserve"><g>
<g xmlns="http://www.w3.org/2000/svg">
	<g>
		<path d="M507.604,443.959L403.571,339.94l43.184-43.184c9.409-9.408,2.76-25.605-10.605-25.605h-150c-8.291,0-15,6.709-15,15v150    c0,13.324,16.158,20.052,25.605,10.605l43.198-43.169l104.004,104.018c5.856,5.856,15.352,5.859,21.21,0.002l42.437-42.437    C513.436,459.338,513.484,449.839,507.604,443.959z" fill="#888888" data-original="#000000" style=""/>
	</g>
</g>
<g xmlns="http://www.w3.org/2000/svg">
	<g>
		<path d="M215.244,65.243l-43.184,43.184L68.041,4.394c-5.856-5.856-15.349-5.862-21.211,0L4.394,46.83    c-5.868,5.868-5.844,15.382,0,21.226L108.428,172.06l-43.184,43.184c-9.409,9.408-2.76,25.605,10.605,25.605h150    c8.291,0,15-6.709,15-15.001v-150C240.849,62.565,224.729,55.758,215.244,65.243z" fill="#888888" data-original="#000000" style=""/>
	</g>
</g>
<g xmlns="http://www.w3.org/2000/svg">
</g>
<g xmlns="http://www.w3.org/2000/svg">
</g>
<g xmlns="http://www.w3.org/2000/svg">
</g>
<g xmlns="http://www.w3.org/2000/svg">
</g>
<g xmlns="http://www.w3.org/2000/svg">
</g>
<g xmlns="http://www.w3.org/2000/svg">
</g>
<g xmlns="http://www.w3.org/2000/svg">
</g>
<g xmlns="http://www.w3.org/2000/svg">
</g>
<g xmlns="http://www.w3.org/2000/svg">
</g>
<g xmlns="http://www.w3.org/2000/svg">
</g>
<g xmlns="http://www.w3.org/2000/svg">
</g>
<g xmlns="http://www.w3.org/2000/svg">
</g>
<g xmlns="http://www.w3.org/2000/svg">
</g>
<g xmlns="http://www.w3.org/2000/svg">
</g>
<g xmlns="http://www.w3.org/2000/svg">
</g>
</g></svg>
