<?xml version="1.0"?>
<svg xmlns="http://www.w3.org/2000/svg" xmlns:xlink="http://www.w3.org/1999/xlink" version="1.1" id="Capa_1" x="0px" y="0px" viewBox="0 0 433.152 433.152" style="enable-background:new 0 0 433.152 433.152;" xml:space="preserve" width="512" height="512"><g><g>
	<g>
		<path d="M359.168,0H73.472c-29.696,0-53.76,24.064-53.76,53.76v325.632c0,29.696,24.064,53.76,53.76,53.76H359.68    c29.696,0,53.76-24.064,53.76-53.76V53.76C412.928,24.064,388.864,0,359.168,0z M387.84,379.392h-0.512    c0,15.36-12.8,28.16-28.16,28.16H114.944V25.6H359.68c15.36,0,28.16,12.8,28.16,28.16V379.392z" data-original="#000000" class="active-path" data-old_color="#000000" style="fill:#888888"/>
	</g>
</g><g>
	<g>
		<path d="M252.16,93.184c-34.304,0-62.464,28.16-62.464,62.464c0,34.816,28.16,62.464,62.464,62.976    c34.304,0,62.464-28.16,62.464-62.464S286.464,93.184,252.16,93.184z" data-original="#000000" class="active-path" data-old_color="#000000" style="fill:#888888"/>
	</g>
</g><g>
	<g>
		<path d="M355.584,278.528c-22.528-34.816-61.44-56.32-103.424-55.808c-41.984-0.512-80.896,20.992-103.424,55.808    c-6.144,8.704-9.216,19.456-8.704,30.208v18.432c0,7.168,5.632,12.8,12.8,12.8h198.656c7.168,0,12.8-5.632,12.8-12.8v-18.432    C364.288,297.984,361.216,287.744,355.584,278.528z" data-original="#000000" class="active-path" data-old_color="#000000" style="fill:#888888"/>
	</g>
</g></g> </svg>
