<?xml version="1.0" encoding="iso-8859-1"?>
<!-- Generator: Adobe Illustrator 16.0.0, SVG Export Plug-In . SVG Version: 6.00 Build 0)  -->
<!DOCTYPE svg PUBLIC "-//W3C//DTD SVG 1.1//EN" "http://www.w3.org/Graphics/SVG/1.1/DTD/svg11.dtd">
<svg xmlns="http://www.w3.org/2000/svg" xmlns:xlink="http://www.w3.org/1999/xlink" version="1.1" id="Capa_1" x="0px" y="0px" width="512px" height="512px" viewBox="0 0 32.75 32.75" style="enable-background:new 0 0 32.75 32.75;" xml:space="preserve">
<g>
	<g>
		<path d="M29.375,1.25h-1.123c0.029-0.092,0.059-0.186,0.059-0.288c0-0.53-0.432-0.962-0.963-0.962s-0.961,0.432-0.961,0.962    c0,0.103,0.028,0.196,0.059,0.288h-3.68c0.029-0.092,0.059-0.186,0.059-0.288c0-0.53-0.432-0.962-0.963-0.962    C21.332,0,20.9,0.432,20.9,0.962c0,0.103,0.029,0.196,0.06,0.288h-3.681c0.029-0.092,0.058-0.186,0.058-0.288    c0-0.53-0.43-0.962-0.961-0.962c-0.531,0-0.961,0.432-0.961,0.962c0,0.103,0.028,0.196,0.058,0.288h-3.681    c0.029-0.092,0.059-0.186,0.059-0.288C11.851,0.432,11.42,0,10.89,0c-0.531,0-0.962,0.432-0.962,0.962    c0,0.103,0.028,0.196,0.058,0.288h-3.68c0.03-0.092,0.059-0.186,0.059-0.288C6.365,0.432,5.935,0,5.404,0    C4.873,0,4.442,0.432,4.442,0.962c0,0.103,0.028,0.196,0.058,0.288H3.375c-1.518,0-2.75,1.234-2.75,2.75v26    c0,1.518,1.232,2.75,2.75,2.75H26.27l5.855-5.855V4C32.125,2.484,30.893,1.25,29.375,1.25z M30.625,26.273l-0.311,0.311h-2.355    c-1.102,0-2,0.9-2,2v2.355l-0.311,0.311H3.375c-0.689,0-1.25-0.561-1.25-1.25V5h28.5V26.273z" fill="#888888"/>
		<path d="M9.024,20.891c-1.122,0-2.03,0.909-2.03,2.03c0,1.12,0.908,2.029,2.03,2.029c1.12,0,2.03-0.909,2.03-2.029    C11.054,21.8,10.144,20.891,9.024,20.891z M9.024,23.984c-0.589,0-1.065-0.477-1.065-1.063s0.476-1.065,1.065-1.065    c0.588,0,1.064,0.479,1.064,1.065S9.612,23.984,9.024,23.984z" fill="#888888"/>
		<path d="M19.355,20.891c-1.121,0-2.03,0.909-2.03,2.03c0,1.12,0.909,2.029,2.03,2.029s2.029-0.909,2.029-2.029    C21.385,21.8,20.477,20.891,19.355,20.891z M19.355,23.984c-0.588,0-1.065-0.477-1.065-1.063s0.478-1.065,1.065-1.065    s1.063,0.479,1.063,1.065S19.943,23.984,19.355,23.984z" fill="#888888"/>
		<path d="M24.125,20.891c-1.121,0-2.029,0.909-2.029,2.03c0,1.12,0.908,2.029,2.029,2.029s2.029-0.909,2.029-2.029    C26.154,21.8,25.246,20.891,24.125,20.891z M24.125,23.984c-0.588,0-1.064-0.477-1.064-1.063s0.478-1.065,1.064-1.065    s1.064,0.479,1.064,1.065S24.712,23.984,24.125,23.984z" fill="#888888"/>
		<path d="M5.056,22.921h1.406c0-1.413,1.149-2.563,2.562-2.563s2.562,1.149,2.562,2.563h5.208c0-1.413,1.149-2.563,2.562-2.563    c1.088,0,2.015,0.686,2.385,1.645c0.371-0.959,1.296-1.645,2.385-1.645c1.413,0,2.562,1.149,2.562,2.563h0.041    c0.391,0,0.709-0.319,0.709-0.71v-0.895c0.271-0.1,0.467-0.354,0.467-0.658v-9.982c0-0.391-0.319-0.71-0.709-0.71H13.108    c-0.391,0-0.71,0.319-0.71,0.71v8.866h13.893v0.272H11.71v-4.438c0-0.39-0.319-0.709-0.709-0.709H9.337    c-0.39,0-0.879,0.271-1.085,0.602l-1.33,2.128c-0.207,0.33-0.669,0.727-1.03,0.877L5,18.65c-0.36,0.152-0.654,0.597-0.654,0.986    v0.887v1.688C4.346,22.602,4.666,22.921,5.056,22.921z M7.445,17.7l1.397-2.238c0.104-0.165,0.348-0.301,0.543-0.301h1.313    c0.195,0,0.355,0.16,0.355,0.355v2.128c0,0.195-0.16,0.355-0.355,0.355H7.61C7.416,18.001,7.341,17.865,7.445,17.7z" fill="#888888"/>
	</g>
</g>
<g>
</g>
<g>
</g>
<g>
</g>
<g>
</g>
<g>
</g>
<g>
</g>
<g>
</g>
<g>
</g>
<g>
</g>
<g>
</g>
<g>
</g>
<g>
</g>
<g>
</g>
<g>
</g>
<g>
</g>
</svg>
