<?xml version="1.0" encoding="UTF-8"?>
<svg width="448px" height="448px" viewBox="0 0 448 448" version="1.1" xmlns="http://www.w3.org/2000/svg" xmlns:xlink="http://www.w3.org/1999/xlink">
    <title>Path</title>
    <g id="Page-1" stroke="none" stroke-width="1" fill="none" fill-rule="evenodd">
        <g id="call" fill="#888888" fill-rule="nonzero">
            <path d="M359,448.003872 C339.48,448.003872 312.06,440.94 271,418 C221.07,390 182.45,364.15 132.79,314.62 C84.91,266.77 61.61,235.79 29,176.45 C-7.84,109.45 -1.56,74.33 5.46,59.32 C13.82,41.38 26.16,30.65 42.11,20 C51.1695014,14.0643551 60.7567022,8.97617585 70.75,4.8 C71.75,4.37 72.68,3.96 73.51,3.59 C78.46,1.36 85.96,-2.01 95.46,1.59 C101.8,3.97 107.46,8.84 116.32,17.59 C134.49,35.51 159.32,75.42 168.48,95.02 C174.63,108.23 178.7,116.95 178.71,126.73 C178.71,138.18 172.95,147.01 165.96,156.54 C164.65,158.33 163.35,160.04 162.09,161.7 C154.48,171.7 152.81,174.59 153.91,179.75 C156.14,190.12 172.77,220.99 200.1,248.26 C227.43,275.53 257.41,291.11 267.82,293.33 C273.2,294.48 276.15,292.74 286.47,284.86 C287.95,283.73 289.47,282.56 291.06,281.39 C301.72,273.46 310.14,267.85 321.32,267.85 L321.38,267.85 C331.11,267.85 339.44,272.07 353.24,279.03 C371.24,288.11 412.35,312.62 430.38,330.81 C439.15,339.65 444.04,345.29 446.43,351.62 C450.03,361.15 446.64,368.62 444.43,373.62 C444.06,374.45 443.65,375.36 443.22,376.37 C439.010777,386.3455 433.892531,395.912502 427.93,404.95 C417.3,420.85 406.53,433.16 388.55,441.53 C379.317227,445.897102 369.212918,448.109449 359,448.003872 L359,448.003872 Z" id="Path"></path>
        </g>
    </g>
</svg>